# xmcd
# Track frame offsets:
# 150
# 11785
# 26372
# 39177
# 53240
# 66895
# 84372
# 94820
# 110697
# 123502
# 142205
# 154447
#
# Disc length: 2230 seconds
# Revision: 0
# Processed by: cddbd v1.5.2PL0 Copyright (c) Steve Scherf et al.
# Submitted via: VisiTrax 2.11.2.271 - For more info visit www.synapsa.com
#
DISCID=a208b40c
DTITLE=Slim Dusty - Aussie Sing Song
DYEAR=1962
DGENRE=Australian Country
TTITLE0=Along The Road To Gundagai/I'm Going Back Again To Yarrawonga/The Ma
TTITLE0=n From The Never Never/That Old Bush Shanty Of Mine
TTITLE1=Click Go The Shears/The Overlander Trail/Waltzing Matilda
TTITLE2=A Pub With No Beer
TTITLE3=Goodbye Melbourne Town/Botany Bay/Wild Rover No More
TTITLE4=Oh, Sydney I Love You/Back To Croajingalong/Beer Barrel Polka
TTITLE5=The Bells Of St. Mary's
TTITLE6=Boomerang/Tie Me Kangaroo Down/Where The Dog Sits On The Tuckerbox
TTITLE7=Keep The Homefires Burning/Pack Up Your Troubles/A Brown Slouch Hat/It
TTITLE7='s A Long Way To Tipperary
TTITLE8=The Answer To A Pub With No Beer
TTITLE9=The Whispering Bush/Little Boy Lost/Suvla Bay
TTITLE10=Bless This House
TTITLE11=The Old Sundowner/The Silver In My Mother's Hair/Now Is The Hour
EXTD=EMI 0946 367781 2 9
EXTT0=
EXTT1=
EXTT2=
EXTT3=
EXTT4=
EXTT5=
EXTT6=
EXTT7=
EXTT8=
EXTT9=
EXTT10=
EXTT11=
PLAYORDER=
